<svg width="61" height="72" viewBox="0 0 61 72" fill="none" xmlns="http://www.w3.org/2000/svg">
<path d="M55.654 60.1057C55.9398 66.0498 50.5396 71.1589 43.5924 71.5172C36.6452 71.8755 30.7817 67.3474 30.4959 61.4033C30.2101 55.4592 35.6103 50.3501 42.5575 49.9918C49.5047 49.6335 55.3682 54.1616 55.654 60.1057Z" fill="#2B639E"/>
<path d="M30.9559 48.1563C31.1107 51.3742 29.522 54.0711 27.4077 54.1802C25.2933 54.2893 23.4539 51.7691 23.2991 48.5512C23.1444 45.3334 24.733 42.6364 26.8474 42.5273C28.9618 42.4183 30.8012 44.9385 30.9559 48.1563Z" fill="#2B639E"/>
<path d="M40.4892 41.1752C40.6439 44.393 39.0553 47.09 36.9409 47.1991C34.8266 47.3081 32.9871 44.788 32.8324 41.5701C32.6777 38.3523 34.2663 35.6553 36.3807 35.5462C38.495 35.4372 40.3345 37.9573 40.4892 41.1752Z" fill="#2B639E"/>
<path d="M50.3355 40.6671C50.4903 43.8849 48.9016 46.5819 46.7873 46.6909C44.6729 46.8 42.8335 44.2798 42.6788 41.062C42.524 37.8441 44.1127 35.1471 46.227 35.0381C48.3414 34.929 50.1808 37.4492 50.3355 40.6671Z" fill="#2B639E"/>
<path d="M60.4918 46.6333C60.6466 49.8511 59.0579 52.5481 56.9436 52.6572C54.8292 52.7662 52.9898 50.246 52.835 47.0282C52.6803 43.8103 54.2689 41.1133 56.3833 41.0043C58.4977 40.8952 60.3371 43.4154 60.4918 46.6333Z" fill="#2B639E"/>
<path d="M22.8346 32.6193C19.5661 37.5141 12.2788 38.1601 6.55788 34.0621C0.836972 29.9641 -1.15111 22.674 2.11738 17.7792C5.38586 12.8843 12.6732 12.2383 18.3941 16.3363C24.115 20.4343 26.1031 27.7244 22.8346 32.6193Z" fill="#2B639E"/>
<path d="M10.2718 7.56239C8.50244 10.2122 5.65658 11.3493 3.91543 10.1021C2.17429 8.85487 2.1972 5.69568 3.9666 3.04584C5.73601 0.395992 8.58187 -0.741068 10.323 0.506143C12.0642 1.75335 12.0413 4.91254 10.2718 7.56239Z" fill="#2B639E"/>
<path d="M21.9367 8.03804C20.1673 10.6879 17.3214 11.8249 15.5803 10.5777C13.8392 9.33053 13.8621 6.17134 15.6315 3.52149C17.4009 0.871645 20.2467 -0.265415 21.9879 0.981797C23.729 2.22901 23.7061 5.3882 21.9367 8.03804Z" fill="#2B639E"/>
<path d="M30.0457 13.8457C28.2763 16.4955 25.4305 17.6326 23.6893 16.3853C21.9482 15.1381 21.9711 11.9789 23.7405 9.3291C25.5099 6.67926 28.3557 5.5422 30.0969 6.78941C31.838 8.03662 31.8151 11.1958 30.0457 13.8457Z" fill="#2B639E"/>
<path d="M34.5925 24.9836C32.8231 27.6334 29.9773 28.7705 28.2361 27.5233C26.495 26.2761 26.5179 23.1169 28.2873 20.467C30.0567 17.8172 32.9026 16.6801 34.6437 17.9273C36.3849 19.1745 36.3619 22.3337 34.5925 24.9836Z" fill="#2B639E"/>
</svg>
