<svg width="300" height="142" viewBox="0 0 300 142" fill="none" xmlns="http://www.w3.org/2000/svg">
<path d="M92.6234 95.1057C92.9194 101.05 87.3263 106.159 80.1308 106.517C72.9354 106.876 66.8623 102.347 66.5663 96.4033C66.2703 90.4592 71.8634 85.3501 79.0589 84.9918C86.2544 84.6335 92.3274 89.1616 92.6234 95.1057Z" fill="#2B639E"/>
<path d="M67.0428 83.1563C67.203 86.3742 65.5576 89.0711 63.3677 89.1802C61.1778 89.2893 59.2726 86.7691 59.1123 83.5512C58.9521 80.3334 60.5975 77.6364 62.7874 77.5273C64.9773 77.4183 66.8825 79.9385 67.0428 83.1563Z" fill="#2B639E"/>
<path d="M76.9167 76.1752C77.0769 79.393 75.4316 82.09 73.2416 82.1991C71.0517 82.3081 69.1465 79.788 68.9863 76.5701C68.826 73.3523 70.4714 70.6553 72.6613 70.5462C74.8513 70.4372 76.7565 72.9573 76.9167 76.1752Z" fill="#2B639E"/>
<path d="M87.1149 75.6671C87.2752 78.8849 85.6298 81.5819 83.4399 81.6909C81.2499 81.8 79.3447 79.2798 79.1845 76.062C79.0243 72.8441 80.6696 70.1471 82.8596 70.0381C85.0495 69.929 86.9547 72.4492 87.1149 75.6671Z" fill="#2B639E"/>
<path d="M97.6342 81.6333C97.7944 84.8511 96.149 87.5481 93.9591 87.6572C91.7692 87.7662 89.864 85.246 89.7037 82.0282C89.5435 78.8103 91.1889 76.1133 93.3788 76.0043C95.5687 75.8952 97.4739 78.4154 97.6342 81.6333Z" fill="#2B639E"/>
<path d="M58.6312 67.6193C55.2459 72.5141 47.6981 73.1601 41.7728 69.0621C35.8474 64.9641 33.7883 57.674 37.1736 52.7792C40.5589 47.8843 48.1067 47.2383 54.032 51.3363C59.9574 55.4343 62.0165 62.7244 58.6312 67.6193Z" fill="#2B639E"/>
<path d="M45.6195 42.5624C43.7868 45.2122 40.8393 46.3493 39.0359 45.1021C37.2326 43.8549 37.2563 40.6957 39.0889 38.0458C40.9216 35.396 43.8691 34.2589 45.6725 35.5061C47.4759 36.7534 47.4521 39.9125 45.6195 42.5624Z" fill="#2B639E"/>
<path d="M57.7012 43.038C55.8686 45.6879 52.921 46.8249 51.1177 45.5777C49.3143 44.3305 49.338 41.1713 51.1706 38.5215C53.0033 35.8716 55.9508 34.7346 57.7542 35.9818C59.5576 37.229 59.5339 40.3882 57.7012 43.038Z" fill="#2B639E"/>
<path d="M66.1 48.8457C64.2674 51.4955 61.3198 52.6326 59.5164 51.3853C57.7131 50.1381 57.7368 46.9789 59.5694 44.3291C61.4021 41.6793 64.3496 40.5422 66.153 41.7894C67.9564 43.0366 67.9327 46.1958 66.1 48.8457Z" fill="#2B639E"/>
<path d="M70.8093 59.9836C68.9767 62.6334 66.0291 63.7705 64.2258 62.5233C62.4224 61.2761 62.4461 58.1169 64.2788 55.467C66.1114 52.8172 69.059 51.6801 70.8623 52.9273C72.6657 54.1745 72.642 57.3337 70.8093 59.9836Z" fill="#2B639E"/>
<path d="M117.261 92.2036C114.422 90.8042 112.103 88.9849 110.304 86.7456C108.504 84.4668 107.165 82.0273 106.285 79.4282C105.445 76.7896 105.025 74.2305 105.025 71.7515V70.4316C105.025 67.7129 105.465 65.0337 106.345 62.3945C107.225 59.7158 108.564 57.2964 110.363 55.1372C112.203 52.978 114.502 51.2588 117.261 49.9795C120.06 48.6597 123.358 48 127.157 48C131.116 48 134.614 48.7397 137.653 50.2192C140.692 51.6987 143.111 53.7578 144.911 56.397C146.75 58.9961 147.83 62.0547 148.149 65.5737H138.253C137.974 63.814 137.333 62.3149 136.334 61.0752C135.334 59.8354 134.035 58.876 132.436 58.1963C130.876 57.5166 129.116 57.1768 127.157 57.1768C125.198 57.1768 123.459 57.5166 121.939 58.1963C120.42 58.876 119.141 59.8354 118.101 61.0752C117.769 61.4863 117.461 61.9238 117.178 62.3877C117.1 62.5156 117.023 62.6455 116.949 62.7773L116.846 62.9634C116.77 63.1045 116.695 63.2476 116.623 63.3926C116.509 63.6216 116.399 63.856 116.296 64.0962C116.24 64.2256 116.187 64.356 116.134 64.4883C116.091 64.5942 116.049 64.7017 116.008 64.8101C115.922 65.04 115.84 65.2744 115.762 65.5137C115.241 67.1929 114.981 69.0723 114.981 71.1514C114.981 73.1909 115.241 75.0698 115.762 76.7896C115.823 76.9731 115.887 77.1543 115.953 77.333L116.056 77.5981C116.59 78.9478 117.291 80.1577 118.16 81.2275C119.24 82.4673 120.56 83.4268 122.119 84.1064C123.679 84.7466 125.458 85.0664 127.457 85.0664C130.496 85.0664 133.055 84.3267 135.135 82.8472C137.254 81.3677 138.533 79.3286 138.973 76.7295H148.81C148.449 79.9282 147.37 82.8672 145.57 85.5464C143.812 88.1851 141.392 90.3042 138.313 91.9038C135.274 93.4634 131.655 94.2432 127.457 94.2432C123.499 94.2432 120.1 93.563 117.261 92.2036Z" fill="white"/>
<path d="M152.216 93.1035V49.3193H161.873V93.1035H152.216Z" fill="white"/>
<path d="M170.505 90.4644C172.544 92.9033 175.463 94.123 179.262 94.123H179.682C182.161 94.123 184.767 94.1831 186.446 93.1035C187.603 92.3604 189.2 91.313 190.357 90.0146V93.1035H197.975V60.2354H188.379V79.5483C188.379 81.3877 187.839 82.8472 186.759 83.9268C185.68 85.0063 184.28 85.5464 182.561 85.5464C180.881 85.5464 179.542 85.0264 178.542 83.9868C177.543 82.9473 177.043 81.5479 177.043 79.7881V60.2354H167.446V79.3086C167.446 84.2666 168.466 87.9854 170.505 90.4644Z" fill="white"/>
<path fill-rule="evenodd" clip-rule="evenodd" d="M218.43 94.2432C215.631 94.2432 213.151 93.7632 210.992 92.8037C208.873 91.8438 207.094 90.5645 205.654 88.9648C204.255 87.3257 203.175 85.5063 202.415 83.5068C201.695 81.4678 201.336 79.3882 201.336 77.269V76.0698C201.336 73.8706 201.695 71.771 202.415 69.772C203.175 67.7329 204.255 65.9136 205.654 64.314C207.054 62.7144 208.793 61.4551 210.872 60.5352C212.991 59.5757 215.391 59.0957 218.069 59.0957C221.588 59.0957 224.547 59.8955 226.946 61.4951C229.386 63.0547 231.245 65.1138 232.524 67.6729C233.804 70.1919 234.443 72.9507 234.443 75.9497V79.1885H210.437C210.574 80.1626 210.8 81.0625 211.112 81.8877C211.672 83.3271 212.552 84.4468 213.751 85.2461C214.951 86.0459 216.51 86.4458 218.43 86.4458C220.188 86.4458 221.628 86.106 222.748 85.4263C223.273 85.1069 223.72 84.7524 224.087 84.3628C224.502 83.9224 224.815 83.4375 225.027 82.9072H233.844C233.364 85.1064 232.425 87.0654 231.024 88.7852C229.625 90.5044 227.866 91.8438 225.747 92.8037C223.628 93.7632 221.188 94.2432 218.43 94.2432ZM210.558 73.4756C210.541 73.5596 210.525 73.6445 210.511 73.7305H225.33C225.191 72.8086 224.97 71.9692 224.667 71.2114C224.107 69.812 223.268 68.7524 222.148 68.0327C221.068 67.2729 219.709 66.8931 218.069 66.8931C217.763 66.8931 217.464 66.9058 217.174 66.9312C216.887 66.9565 216.608 66.9941 216.338 67.0444C215.391 67.2202 214.549 67.5498 213.812 68.0327C212.651 68.7925 211.771 69.9121 211.172 71.3916C211.109 71.542 211.05 71.6963 210.993 71.854C210.935 72.0171 210.881 72.1841 210.83 72.355C210.725 72.7114 210.634 73.085 210.558 73.4756Z" fill="white"/>
<path d="M239.303 91.2441C241.942 93.1636 245.601 94.123 250.279 94.123C253.238 94.123 255.817 93.7031 258.017 92.8633C260.216 91.9839 261.915 90.7441 263.114 89.145C264.314 87.5054 264.914 85.5859 264.914 83.3867C264.914 80.3481 263.794 77.9292 261.555 76.1294C259.315 74.3301 256.177 73.2109 252.139 72.771L249.56 72.5308C247.84 72.3311 246.601 71.9912 245.841 71.5112C245.532 71.3164 245.286 71.0854 245.103 70.8179C244.835 70.4268 244.701 69.958 244.701 69.4121C244.701 68.4526 245.141 67.6929 246.021 67.1328C246.9 66.5732 248.08 66.2935 249.56 66.2935C251.438 66.2935 252.858 66.6733 253.817 67.4326C254.777 68.1523 255.337 69.0522 255.497 70.1318H264.014C263.895 66.6133 262.534 63.9341 259.936 62.0947C257.337 60.2153 253.918 59.2759 249.68 59.2759C247.04 59.2759 244.682 59.6758 242.602 60.4756C240.562 61.2749 238.963 62.4546 237.804 64.0142C236.645 65.5737 236.064 67.5127 236.064 69.832C236.064 72.6309 237.044 74.9302 239.003 76.7295C241.003 78.5288 243.981 79.6284 247.94 80.0283L250.52 80.2681C252.679 80.5078 254.178 80.9277 255.018 81.5278C255.857 82.0874 256.277 82.8472 256.277 83.8066C256.277 84.8862 255.717 85.7261 254.598 86.3257C253.518 86.8857 252.139 87.1655 250.459 87.1655C248.26 87.1655 246.601 86.7656 245.48 85.9658C244.401 85.1265 243.781 84.1865 243.622 83.147H235.104C235.265 86.626 236.664 89.3247 239.303 91.2441Z" fill="white"/>
</svg>
